<?xml version="1.0" encoding="utf-8"?>
<!-- Generator: Adobe Illustrator 25.1.0, SVG Export Plug-In . SVG Version: 6.00 Build 0)  -->
<svg version="1.1" xmlns="http://www.w3.org/2000/svg" xmlns:xlink="http://www.w3.org/1999/xlink" x="0px" y="0px"
	 viewBox="0 0 1820 598" style="enable-background:new 0 0 1820 598;" xml:space="preserve">
<style type="text/css">
	.st0{fill:#BE1F24;}
	.st1{fill:#FFFFFF;}
	.st2{fill:#020202;}
	.st3{fill:#070707;}
</style>
<g id="Layer_1">
	<rect x="18" y="36.3" class="st0" width="532.6" height="532.6"/>
</g>
<g id="Layer_2">
	<path class="st1" d="M174.5,90.5c56.3,0,101.9,45.6,101.9,101.9c0,56.3-45.6,101.9-101.9,101.9c-56.3,0-101.9-45.6-101.9-101.9
		C72.6,136.1,118.2,90.5,174.5,90.5"/>
	<rect x="66.5" y="311" class="st1" width="203.8" height="203.8"/>
	<path class="st1" d="M400.3,90.5c56.3,0,101.9,45.6,101.9,101.9c0,56.3-45.6,101.9-101.9,101.9c-56.3,0-101.9-45.6-101.9-101.9
		C298.4,136.1,344,90.5,400.3,90.5"/>
	<rect x="292.3" y="311" class="st1" width="203.8" height="203.8"/>
</g>
<g id="Layer_3">
	<path class="st0" d="M787,387.3v124.9c0,37.1-27,58.5-67.2,58.5c-40.2,0-67.2-21.4-67.2-58.5V387.3h38.3v113.3
		c0,30.2,9.6,39.5,28.9,39.5c19.4,0,28.9-9.3,28.9-39.5V387.3H787z"/>
	<polygon class="st0" points="868.2,387.3 925.3,506.4 925.8,506.4 925.8,387.3 964,387.3 964,567.9 923.1,567.9 851,422.8 
		850.5,422.8 850.5,567.9 812.3,567.9 812.3,387.3 	"/>
	<path class="st0" d="M1134.7,567.9h-39l-12.5-45.3h-56.4l-12.5,45.3h-39l53.5-180.6h51.5L1134.7,567.9z M1055.5,418.4h-1
		l-20.1,75.7h41.2L1055.5,418.4z"/>
	<polygon class="st0" points="1265.7,387.3 1328.4,387.3 1328.4,567.9 1290.2,567.9 1290.2,424 1289.7,424 1254.4,567.9 1220,567.9 
		1184.7,424 1184.3,424 1184.3,567.9 1146,567.9 1146,387.3 1208.8,387.3 1237,516.8 1237.5,516.8 	"/>
</g>
<g id="Layer_4">
	<path class="st2" d="M1366.5,387.3c2.9,0,5.6,0.7,8.3,2.2c2.6,1.4,4.7,3.5,6.2,6.2c1.5,2.7,2.3,5.5,2.3,8.4c0,2.9-0.7,5.7-2.2,8.4
		c-1.5,2.7-3.6,4.7-6.2,6.2c-2.7,1.5-5.4,2.2-8.4,2.2s-5.7-0.7-8.4-2.2c-2.7-1.5-4.7-3.6-6.2-6.2c-1.5-2.7-2.2-5.4-2.2-8.4
		c0-2.9,0.8-5.8,2.3-8.4c1.5-2.7,3.6-4.8,6.2-6.2C1360.9,388.1,1363.6,387.3,1366.5,387.3 M1366.5,390.6c-2.3,0-4.5,0.6-6.6,1.7
		c-2.1,1.2-3.8,2.8-5,5c-1.2,2.2-1.8,4.4-1.8,6.8c0,2.4,0.6,4.6,1.8,6.7c1.2,2.1,2.9,3.8,5,5c2.1,1.2,4.4,1.8,6.7,1.8
		c2.4,0,4.6-0.6,6.7-1.8c2.1-1.2,3.8-2.9,5-5c1.2-2.1,1.8-4.4,1.8-6.7c0-2.4-0.6-4.6-1.8-6.8c-1.2-2.2-2.9-3.8-5-5
		C1371.1,391.2,1368.8,390.6,1366.5,390.6 M1358.9,413.1v-17.8h3.6c3.4,0,5.3,0,5.7,0c1.2,0.1,2.1,0.3,2.8,0.7
		c0.7,0.4,1.2,0.9,1.7,1.7c0.4,0.8,0.7,1.6,0.7,2.5c0,1.3-0.4,2.4-1.3,3.3c-0.8,0.9-2,1.5-3.5,1.7c0.5,0.2,1,0.4,1.2,0.7
		c0.3,0.2,0.7,0.7,1.2,1.4c0.1,0.2,0.6,0.9,1.3,2.2l2.1,3.6h-4.5l-1.5-2.9c-1-1.9-1.8-3.2-2.5-3.7c-0.7-0.5-1.5-0.8-2.5-0.8h-0.9
		v7.3H1358.9z M1362.5,403h1.5c1.9,0,3.1,0,3.5-0.2c0.6-0.1,1.1-0.4,1.5-0.8c0.3-0.4,0.5-0.9,0.5-1.5c0-0.6-0.2-1.1-0.6-1.5
		c-0.4-0.4-0.9-0.7-1.6-0.8c-0.5-0.1-1.6-0.1-3.3-0.1h-1.5V403z"/>
</g>
<g id="Layer_5">
	<rect x="652.6" y="37.4" class="st3" width="25.6" height="116.5"/>
	<polygon class="st3" points="733.3,37.4 771.4,114.2 771.8,114.2 771.8,37.4 797.3,37.4 797.3,153.9 770,153.9 721.8,60.3 
		721.5,60.3 721.5,153.9 695.9,153.9 695.9,37.4 	"/>
	<path class="st3" d="M874.5,71.7c-2.5-8.1-7.4-16.3-17.7-16.3c-8.4,0-15.6,5.5-15.6,13.5c0,22.9,60,7.9,60,51.4
		c0,14.2-11.8,35.5-43.3,35.5c-24.2,0-41.8-10.8-45.7-33.5l25.6-3.4c2.3,9.9,7.9,17.2,20,17.2c10,0,18.4-4.8,18.4-14.8
		c0-23.4-60-9.9-60-49.6c0-21,19.3-35.9,41.5-35.9c21.6,0,37.8,12.7,40,32.3L874.5,71.7z"/>
	<polygon class="st3" points="1000.3,57.2 967.2,57.2 967.2,153.9 941.7,153.9 941.7,57.2 908.6,57.2 908.6,37.4 1000.3,37.4 	"/>
	<rect x="1010.3" y="37.4" class="st3" width="25.6" height="116.5"/>
	<polygon class="st3" points="1137.8,57.2 1104.7,57.2 1104.7,153.9 1079.2,153.9 1079.2,57.2 1046.1,57.2 1046.1,37.4 1137.8,37.4 
			"/>
	<path class="st3" d="M1236.9,37.4V118c0,24-18,37.7-44.9,37.7c-26.9,0-44.9-13.8-44.9-37.7V37.4h25.6v73.1
		c0,19.5,6.4,25.5,19.3,25.5c12.9,0,19.3-6,19.3-25.5V37.4H1236.9z"/>
	<polygon class="st3" points="1338,57.2 1304.9,57.2 1304.9,153.9 1279.4,153.9 1279.4,57.2 1246.3,57.2 1246.3,37.4 1338,37.4 	"/>
	<path class="st3" d="M1450.8,95.7c0,29.4-16.2,60-52.6,60c-36.4,0-52.6-30.7-52.6-60c0-29.3,16.2-60,52.6-60
		C1434.6,35.6,1450.8,66.3,1450.8,95.7 M1371.8,95.7c0,15,4.4,41.6,26.4,41.6c22,0,26.4-26.7,26.4-41.6c0-15-4.4-41.6-26.4-41.6
		C1376.2,54.1,1371.8,80.7,1371.8,95.7"/>
	<path class="st3" d="M683.8,217.1c48.5,0,65.7,25.2,65.7,58.2c0,32.8-18.8,58.2-56.9,58.2h-40V217.1H683.8z M690.7,313.9
		c20.3,0,32.6-11.7,32.6-41.2c0-24.4-11.5-35.8-35.4-35.8h-9.7v77H690.7z"/>
	<polygon class="st3" points="844,236.9 790.3,236.9 790.3,264.8 834.8,264.8 834.8,284.5 790.3,284.5 790.3,313.9 847.1,313.9 
		847.1,333.6 764.7,333.6 764.7,217.1 844,217.1 	"/>
	<rect x="914" y="217.1" class="st3" width="25.6" height="116.5"/>
	<polygon class="st3" points="994.6,217.1 1032.8,294 1033.1,294 1033.1,217.1 1058.7,217.1 1058.7,333.6 1031.3,333.6 983.1,240 
		982.8,240 982.8,333.6 957.2,333.6 957.2,217.1 	"/>
	<path class="st3" d="M1126.8,293.5v-18.4h46.7v58.5h-17.9l-2.5-8.2c-7.2,7.3-18.2,10-26.7,10c-36.4,0-52.6-30.7-52.6-60
		c0-29.3,16.2-60,52.6-60c25.1,0,44.4,13.9,47,36.1l-22.9,3.1c-2.1-11.2-8.2-20.8-24.1-20.8c-22,0-26.4,26.7-26.4,41.6
		c0,15,4.4,41.6,26.4,41.6c19.8,0,23.4-10.3,22.5-23.5H1126.8z"/>
	<polygon class="st3" points="1269.4,236.9 1215.6,236.9 1215.6,264.8 1260.2,264.8 1260.2,284.5 1215.6,284.5 1215.6,313.9 
		1272.5,313.9 1272.5,333.6 1190.1,333.6 1190.1,217.1 1269.4,217.1 	"/>
	<polygon class="st3" points="1325.7,217.1 1363.9,294 1364.3,294 1364.3,217.1 1389.8,217.1 1389.8,333.6 1362.4,333.6 1314.3,240 
		1314,240 1314,333.6 1288.4,333.6 1288.4,217.1 	"/>
	<rect x="1407.5" y="217.1" class="st3" width="25.6" height="116.5"/>
	<polygon class="st3" points="1530.1,236.9 1476.3,236.9 1476.3,264.8 1520.9,264.8 1520.9,284.5 1476.3,284.5 1476.3,313.9 
		1533.2,313.9 1533.2,333.6 1450.8,333.6 1450.8,217.1 1530.1,217.1 	"/>
	<path class="st3" d="M1599.4,217.1c29.3,0,40.8,19.2,40.8,34c0,12.7-8.7,24.6-21.6,29.3l25.4,53.2h-26.9l-22.9-48.4h-19.5v48.4
		h-25.6V217.1H1599.4z M1585.8,265.5c11.1,0,28.2,0.6,28.2-13.9c0-16-17.2-14.7-29.8-14.7h-9.5v28.6H1585.8z"/>
	<path class="st3" d="M1657.1,217.1h25.6v116.5h-25.6V217.1z M1668,184.5h22.3l-16.9,21h-15.1L1668,184.5z"/>
	<path class="st3" d="M1796.7,333.6h-26.1l-8.4-29.2h-37.7l-8.4,29.2h-26.1l35.7-116.5h34.4L1796.7,333.6z M1743.7,237.2h-0.7
		l-13.4,48.8h27.5L1743.7,237.2z"/>
</g>
</svg>
