<?xml version="1.0" encoding="UTF-8"?>
<svg xmlns="http://www.w3.org/2000/svg" id="Capa_1" data-name="Capa 1" version="1.1" viewBox="0 0 1920 400"><defs><style> .cls-1 { fill: #ff9666; } .cls-1, .cls-2 { stroke-width: 0px; } .cls-2 { fill: #000; } </style></defs><g id="Capa_2" data-name="Capa 2"><g id="Capa_1-2" data-name="Capa 1-2"><path class="cls-2" d="M381.1,251.8v114.1c0,5.3-3.4,8.6-8.6,8.6h-45.2c-5.8,0-9.1-3.4-9.1-8.6v-104.9c0-33.2-17.3-55.3-44.3-55.3s-47.6,22.6-47.6,54.4v105.9c0,5.3-2.9,8.6-8.6,8.6h-45.2c-5.8,0-9.1-3.4-9.1-8.6v-104.9c0-33.2-17.8-55.3-43.8-55.3s-48.1,24.1-48.1,53.4v106.8c0,5.3-3.4,8.6-8.6,8.6H17.3c-5.8,0-9.1-3.4-9.1-8.6v-204c0-5.3,3.4-8.6,9.1-8.6h27.4c5.3,0,8.6,3.4,9.1,8.6l1.9,30.3c11.5-24.1,40-43.3,74.1-43.3s62.6,15.4,78.9,39c13.5-21.6,39-39,72.2-39,58.3,0,100.1,41.4,100.1,103Z"/><path class="cls-2" d="M649.7,159.7v204c0,5.3-3.4,8.6-9.1,8.6h-38c-5.8,0-9.1-2.9-9.6-8.6l-1.4-21.2c-16.4,19.7-40.4,34.2-73.2,34.2-61.1,0-106.3-49.6-106.3-115s46.7-115,107.8-115,52.5,10.6,69.3,25.9l1.4-13.5c.5-5.3,3.8-8.2,9.1-8.2h40.9c5.8,0,9.1,3.4,9.1,8.7ZM589.1,261.7c0-33.7-22.1-57.8-56.8-57.8s-56.8,24.5-56.8,57.8,24.5,57.7,56.8,57.7,57.2-24.5,56.8-57.7Z"/><path class="cls-2" d="M1071.1,347.4l-14.4-31.3c-2.4-5.3-6.7-6.3-12-3.4-6.7,2.9-15.9,7.2-28.4,7.2-22.6,0-39-9.6-39-35.6v-80.4h73.2c5.8,0,9.1-3.4,9.1-9.1v-35.1c0-5.3-3.4-8.6-9.1-8.6h-73.2v-67.4c0-5.3-3.4-8.6-9.1-8.6h-43.3c-5.8,0-8.6,3.4-8.6,8.6v67.4h-135.4v-67.4c0-5.3-3.4-8.6-9.1-8.6h-43.3c-5.8,0-8.6,3.4-8.6,8.6v67.4h-38c-5.8,0-8.6,3.4-8.6,8.6v35.1c0,5.8,2.9,9.1,8.6,9.1h36.1v86.6c0,55.3,33.2,86.1,87.6,86.1s60.6-13.5,65.4-16.8c4.8-3.8,6.3-7.2,3.8-12.5l-14.4-31.3c-2.4-5.3-6.7-6.3-12-3.4-6.7,2.9-15.9,7.2-28.4,7.2-22.6,0-39-9.6-39-35.6v-80.3h133.5v86.6c0,55.3,33.2,86.1,87.5,86.1s60.6-13.5,65.4-16.8c4.9-3.8,6.3-7.2,3.9-12.5Z"/><path class="cls-2" d="M1082.7,74.3c0-23.6,17.8-39.5,40.9-40,23.6,0,41.9,16.4,41.9,40s-18.3,40-41.9,40c-23.1,0-40.9-16.4-40.9-40ZM1093.3,365v-204.1c0-5.3,3.4-8.6,8.6-8.6h45.2c5.8,0,9.1,3.4,9.1,8.6v204c0,5.3-3.4,8.6-9.1,8.6h-45.2c-5.7,0-8.6-3.4-8.6-8.6h0Z"/><path class="cls-2" d="M1201.7,365.9V39.6c0-5.3,3.4-8.6,9.1-8.6h45.2c5.3,0,8.6,3.4,8.6,8.6v326.3c0,5.3-3.4,8.6-8.6,8.6h-45.2c-5.8,0-9.1-3.4-9.1-8.6Z"/><path class="cls-2" d="M1533.8,37.8v326.3c0,5.3-3.4,8.6-9.1,8.6h-33.7c-5.3,0-8.6-2.9-9.1-8.6l-1.4-20.2c-17.3,19.2-42.4,33.2-75.6,33.2-61.1,0-108.3-49.6-108.3-115s45.2-115,106.3-115,52.5,12,68.3,29.4V37.8c0-5.3,2.9-8.6,8.6-8.6h44.8c5.8,0,9.2,3.4,9.2,8.6ZM1473.7,262c0-32.7-22.1-57.8-56.8-57.8s-56.8,25-56.8,57.8,24.5,57.8,56.8,57.8c34.6,0,56.8-24,56.8-57.7h0Z"/><path class="cls-2" d="M1802,160v204c0,5.3-3.4,8.6-9.1,8.6h-38c-5.8,0-9.1-2.9-9.6-8.6l-1.4-21.2c-16.4,19.7-40.4,34.2-73.2,34.2-61.1,0-106.3-49.6-106.3-115s46.7-115,107.8-115,52.4,10.6,69.3,26l1.4-13.5c.5-5.3,3.8-8.2,9.1-8.2h40.9c5.7,0,9.1,3.4,9.1,8.7ZM1741.4,262.1c0-33.7-22.1-57.8-56.8-57.8s-56.8,24.5-56.8,57.8,24.5,57.8,56.8,57.8c34.6,0,57.2-24.5,56.7-57.8h0Z"/><path class="cls-1" d="M1833.7,336.6c0-22.5,18.2-40.7,40.7-40.7,22.5,0,40.7,18.2,40.7,40.7,0,22.5-18.2,40.7-40.7,40.7h0c-22.2.3-40.4-17.5-40.7-39.8,0-.3,0-.6,0-.9Z"/></g></g></svg>